<svg width="82" height="71" viewBox="0 0 82 71" fill="none" xmlns="http://www.w3.org/2000/svg">
<path fill-rule="evenodd" clip-rule="evenodd" d="M14.1238 7.75353H26.5663C27.8057 7.75353 28.8004 6.74457 28.8004 5.52405V1H11.8896V5.52405C11.8896 6.74457 12.9007 7.75353 14.1238 7.75353Z" fill="#19191b" stroke="#5C0003" stroke-width="1.5"/>
<path fill-rule="evenodd" clip-rule="evenodd" d="M8.0898 35.0931C8.0898 28.3884 13.5365 22.9693 20.2551 22.9693C26.9738 22.9693 32.4205 28.4047 32.4205 35.0931C32.4205 41.7978 26.9738 47.2332 20.2551 47.2332C13.5202 47.2332 8.0898 41.7978 8.0898 35.0931ZM0.751465 4.629V62.7907H39.9382V30.8783V4.629C39.9382 2.62736 38.3074 1 36.3016 1H28.8002V5.52405C28.8002 6.74457 27.7892 7.75353 26.5661 7.75353H14.1235C12.9005 7.75353 11.8894 6.74457 11.8894 5.52405V1H4.38802C2.38221 1 0.751465 2.62736 0.751465 4.629Z" stroke="#5C0003" stroke-width="1.5"/>
<path fill-rule="evenodd" clip-rule="evenodd" d="M7.75146 35.1235C7.75146 42.0812 13.4036 47.7216 20.3757 47.7216C27.3478 47.7216 33 42.0812 33 35.1235C33 28.1659 27.3478 22.5424 20.3757 22.5424C13.3867 22.5255 7.75146 28.1659 7.75146 35.1235Z" fill="#66F270" stroke="#5C0003" stroke-width="1.5"/>
<path d="M19.1291 39.2777L15.5293 35.6181L17.1165 34.0044L19.1291 36.0505L23.3865 31.7222L24.9737 33.3358L19.1291 39.2777Z" fill="#5C0003"/>
<path fill-rule="evenodd" clip-rule="evenodd" d="M15.4934 69.9999H36.3016H36.3342C38.3237 69.9836 39.9382 68.3563 39.9382 66.3709V62.807H0.751465V66.3709C0.751465 68.3563 2.3659 69.9836 4.3554 69.9999H4.38802H15.4934Z" fill="#19191b" stroke="#5C0003" stroke-width="1.5"/>
<path fill-rule="evenodd" clip-rule="evenodd" d="M36.3506 70H77.3474H77.3963C79.3695 69.9837 81.0003 68.3564 81.0003 66.371V58.8852H76.4668C75.2437 58.8852 74.2327 57.8762 74.2327 56.6557V44.239C74.2327 43.0184 75.2437 42.0095 76.4668 42.0095H80.984V34.5236C80.984 32.522 79.3532 30.8946 77.3474 30.8946H39.9382V62.8234V66.3873C39.9382 68.3564 38.3238 69.9837 36.3506 70Z" stroke="#5C0003" stroke-width="1.5"/>
<path fill-rule="evenodd" clip-rule="evenodd" d="M74.2163 56.6557C74.2163 57.8762 75.2274 58.8852 76.4504 58.8852H80.9839V41.9932H76.4504C75.2274 41.9932 74.2163 43.0022 74.2163 44.2227V56.6557Z" fill="#19191b" stroke="#5C0003" stroke-width="1.5"/>
<path d="M55.2144 1C54.7473 1 54.2891 1.1825 53.944 1.52715L49.5434 5.91857C49.0328 6.42817 48.7515 7.10605 48.7515 7.82746C48.7515 8.54886 49.0328 9.22692 49.5434 9.73652L53.944 14.1279C54.4611 14.6442 55.2316 14.7967 55.9069 14.5166C56.5812 14.2369 57.0169 13.5848 57.0169 12.8555V8.7261C64.1507 8.7261 69.9546 14.5301 69.9546 21.6642V23.1015C69.9546 23.5978 70.3568 24 70.853 24C71.3493 24 71.7515 23.5978 71.7515 23.1015V21.6642C71.7515 17.7283 70.2189 14.0279 67.4358 11.2448C64.6528 8.46182 60.9527 6.92899 57.0169 6.92899C56.026 6.92899 55.2199 7.73515 55.2199 8.72592V12.8555C55.2199 12.8557 55.2199 12.8559 55.2199 12.8561C55.2185 12.8568 55.2167 12.8575 55.2151 12.858C55.2146 12.8573 55.2139 12.8568 55.2132 12.8561L50.8126 8.46445C50.6422 8.29441 50.5483 8.06822 50.5483 7.82746C50.5483 7.58669 50.6422 7.3605 50.8126 7.19046L55.2132 2.79904L55.2151 2.79711C55.2167 2.79763 55.2185 2.79816 55.2199 2.79886C55.2199 2.79904 55.2199 2.79921 55.2199 2.79956V3.78436C55.2199 4.28062 55.6222 4.68283 56.1185 4.68283C56.6145 4.68283 57.0169 4.28062 57.0169 3.78436V2.79956C57.0169 2.07026 56.5812 1.41817 55.9069 1.13845C55.6824 1.04527 55.4473 1 55.2144 1Z" fill="#5C0003"/>
</svg>
