<svg xmlns="http://www.w3.org/2000/svg" viewBox="0 0 1440 320">
  <path fill="#ffffff" fill-opacity="1"
    d="M0,256L11.4,218.7C22.9,181,46,107,69,85.3C91.4,64,114,96,137,96C160,96,183,64,206,74.7C228.6,85,251,139,274,154.7C297.1,171,320,149,343,138.7C365.7,128,389,128,411,122.7C434.3,117,457,107,480,133.3C502.9,160,526,224,549,234.7C571.4,245,594,203,617,165.3C640,128,663,96,686,74.7C708.6,53,731,43,754,80C777.1,117,800,203,823,202.7C845.7,203,869,117,891,117.3C914.3,117,937,203,960,240C982.9,277,1006,267,1029,266.7C1051.4,267,1074,277,1097,261.3C1120,245,1143,203,1166,186.7C1188.6,171,1211,181,1234,197.3C1257.1,213,1280,235,1303,218.7C1325.7,203,1349,149,1371,160C1394.3,171,1417,245,1429,282.7L1440,320L1440,320L1428.6,320C1417.1,320,1394,320,1371,320C1348.6,320,1326,320,1303,320C1280,320,1257,320,1234,320C1211.4,320,1189,320,1166,320C1142.9,320,1120,320,1097,320C1074.3,320,1051,320,1029,320C1005.7,320,983,320,960,320C937.1,320,914,320,891,320C868.6,320,846,320,823,320C800,320,777,320,754,320C731.4,320,709,320,686,320C662.9,320,640,320,617,320C594.3,320,571,320,549,320C525.7,320,503,320,480,320C457.1,320,434,320,411,320C388.6,320,366,320,343,320C320,320,297,320,274,320C251.4,320,229,320,206,320C182.9,320,160,320,137,320C114.3,320,91,320,69,320C45.7,320,23,320,11,320L0,320Z">
  </path>
</svg>